# xmcd
#
# Track frame offsets:
#	150
#	13611
#	26237
#	39036
#	51404
#	63854
#	76619
#	90165
#	104159
#	115669
#
# Disc length: 1795 seconds
#
# Revision: 0
# Processed by: cddbd v1.5.2PL0 Copyright (c) Steve Scherf et al.
# Submitted via: EasyCDDAExtractor 2010.6.0.0
#
DISCID=6d07010a
DTITLE=Mike Devore - When Mama Prayed
DYEAR=2012
DGENRE=Gospel
TTITLE0=If I Fall
TTITLE1=Go Right At The Top Of The Hill
TTITLE2=My Child Keep Looking Up
TTITLE3=Clock On The Wall
TTITLE4=Grandma Prayed
TTITLE5=Headed Home
TTITLE6=Higher Ground
TTITLE7=I Wonder Where I'll Put Jesus Today
TTITLE8=What He Did At Calvary
TTITLE9=When Jesus Stopped By
EXTD=
EXTT0=
EXTT1=
EXTT2=
EXTT3=
EXTT4=
EXTT5=
EXTT6=
EXTT7=
EXTT8=
EXTT9=
PLAYORDER=
